<?xml version="1.0" standalone="no"?>
<!DOCTYPE svg PUBLIC "-//W3C//DTD SVG 20010904//EN"
 "http://www.w3.org/TR/2001/REC-SVG-20010904/DTD/svg10.dtd">
<svg version="1.0" xmlns="http://www.w3.org/2000/svg"
 width="512.000000pt" height="512.000000pt" viewBox="0 0 512.000000 512.000000"
 preserveAspectRatio="xMidYMid meet">

<g transform="translate(0.000000,512.000000) scale(0.100000,-0.100000)"
fill="#000000" stroke="none">
<path d="M2315 5109 c-1126 -107 -2065 -964 -2270 -2073 -123 -666 15 -1342
387 -1898 178 -267 438 -527 706 -706 324 -218 691 -355 1107 -414 119 -17
512 -16 635 1 580 80 1087 330 1490 733 461 462 721 1060 746 1713 20 497
-109 997 -366 1420 -54 89 -85 123 -135 146 -146 68 -313 -59 -291 -220 4 -29
27 -79 67 -145 146 -244 232 -477 285 -771 28 -157 26 -498 -5 -670 -71 -400
-233 -750 -489 -1056 -619 -739 -1679 -959 -2557 -530 -436 213 -767 544 -985
983 -395 797 -245 1759 376 2417 283 301 704 532 1117 616 129 26 300 45 407
45 74 0 131 22 172 66 99 106 65 274 -67 335 -44 21 -164 23 -330 8z"/>
<path d="M3130 5014 c-45 -20 -86 -59 -113 -109 -22 -40 -22 -44 -25 -767 l-3
-728 -257 0 c-307 0 -387 -13 -534 -83 -425 -202 -607 -707 -405 -1129 109
-229 316 -400 562 -464 97 -26 312 -26 410 0 243 63 452 235 560 460 85 179
79 88 83 1274 1 578 5 1052 7 1052 3 0 54 -24 113 -54 124 -63 266 -154 371
-238 122 -100 171 -118 254 -97 126 31 193 178 136 296 -24 50 -163 167 -329
276 -216 142 -644 327 -755 326 -22 0 -56 -7 -75 -15z m-140 -2267 c0 -256 -6
-300 -52 -391 -27 -52 -103 -132 -156 -163 -177 -104 -395 -74 -534 75 -157
167 -157 417 0 584 54 58 111 93 190 119 49 15 94 18 305 18 l247 1 0 -243z"/>
</g>
</svg>
